<svg width="55" height="42" viewBox="0 0 55 42" fill="none" xmlns="http://www.w3.org/2000/svg">
    <g clip-path="url(#clip0_61_171)">
        <path
            d="M46.3031 3.50288C42.7624 1.84498 39.0165 0.666971 35.1646 0C34.6849 0.86807 34.1243 2.03563 33.7377 2.96448C29.5847 2.33948 25.4698 2.33948 21.3932 2.96448C21.0068 2.03584 20.4336 0.86807 19.9493 0C16.0937 0.667262 12.3446 1.84827 8.80227 3.51154C1.75318 14.1717 -0.157781 24.5668 0.797592 34.8148C5.47301 38.3089 10.004 40.4314 14.4586 41.8204C15.5657 40.2969 16.5444 38.6838 17.3844 36.998C15.785 36.3887 14.2431 35.6377 12.7771 34.7541C13.1628 34.4678 13.5396 34.1696 13.9067 33.8598C22.7901 38.018 32.4426 38.018 41.2202 33.8598C41.5889 34.1676 41.9655 34.4658 42.3496 34.7541C40.8812 35.6401 39.3365 36.3925 37.7338 37.0024C38.5787 38.6951 39.5556 40.3097 40.6596 41.8246C45.1185 40.4359 49.6536 38.3133 54.329 34.8148C55.4502 22.935 52.4141 12.6352 46.3031 3.50288ZM18.5947 28.5125C15.9279 28.5125 13.7409 26.021 13.7409 22.9871C13.7409 19.9532 15.8813 17.4574 18.5947 17.4574C21.3082 17.4574 23.4952 19.9487 23.4486 22.9871C23.4528 26.021 21.3084 28.5125 18.5947 28.5125ZM36.5319 28.5125C33.8651 28.5125 31.6783 26.021 31.6783 22.9871C31.6783 19.9532 33.8185 17.4574 36.5319 17.4574C39.2455 17.4574 41.4324 19.9487 41.3857 22.9871C41.3857 26.021 39.2455 28.5125 36.5319 28.5125Z"
            fill="white" />
    </g>
    <defs>
        <clipPath id="clip0_61_171">
            <rect width="54" height="42" fill="white" transform="translate(0.564453)" />
        </clipPath>
    </defs>
</svg>